<svg xmlns="http://www.w3.org/2000/svg" viewBox="0 0 503.7 201.05">
	<path d="M69.4,113.6H26.6l-11.3,36H0L39.7,31.5h16.9l39.8,118.1H80.6L69.4,113.6z M65.7,101.5l-5.6-18c-2-6.6-4-13.2-5.9-19.7s-3.8-13.2-5.8-20.1h-0.7c-1.9,6.8-3.8,13.5-5.8,20.1C40,70.3,38,76.9,36,83.5l-5.6,18H65.7z"/>
	<path d="M113.6,21.4h14.8v34.9L128,73.2c4.1-4,8.9-7.3,14.1-9.7c9.9-4.6,21.2-4.8,31.2-0.5c4.5,2,8.4,5.1,11.4,9c3.2,4.2,5.5,8.9,6.9,14c1.6,6,2.4,12.1,2.3,18.3c0.1,6.8-1,13.6-3.2,20c-1.9,5.5-4.9,10.6-8.7,14.9c-7,7.9-17.1,12.4-27.6,12.4c-4.7-0.1-9.3-1.2-13.6-3.1c-5-2.2-9.6-5.1-13.6-8.7h-0.5l-1.3,9.7h-11.8V21.4z M128.3,129.1c3.7,3.4,8,6.1,12.7,7.9c3.5,1.4,7.3,2.2,11.1,2.3c3.7,0,7.3-0.8,10.6-2.4c3.3-1.6,6.2-4,8.5-6.8c2.6-3.2,4.4-6.9,5.6-10.9c1.4-4.7,2.1-9.6,2-14.6c0-4.4-0.4-8.8-1.4-13.1c-0.8-3.6-2.3-7.1-4.4-10.2c-2-2.8-4.6-5.1-7.6-6.6c-3.5-1.6-7.3-2.4-11.2-2.3c-4.3,0.1-8.5,1.2-12.3,3.2c-5,2.6-9.5,5.9-13.4,10L128.3,129.1z"/>
	<path d="M212.2,106c-0.1-6.7,1.1-13.3,3.5-19.5c2.2-5.4,5.4-10.3,9.4-14.5c3.9-3.9,8.6-7,13.8-9c10.6-4.1,22.3-4.1,32.9,0c5.2,2,9.9,5.1,13.8,9c4.1,4.2,7.3,9.1,9.5,14.5c2.4,6.2,3.6,12.8,3.5,19.5c0.1,6.6-1.1,13.2-3.5,19.3c-2.1,5.4-5.4,10.3-9.5,14.4c-3.9,3.9-8.6,6.9-13.8,8.9c-10.6,4.1-22.3,4.1-32.9,0c-5.2-2-9.8-5-13.8-8.9c-4.1-4.1-7.3-9-9.5-14.4C213.3,119.2,212.1,112.6,212.2,106z M227.5,106c-0.1,4.6,0.6,9.3,2,13.7c1.2,3.8,3.1,7.4,5.7,10.5c2.4,2.9,5.4,5.2,8.8,6.8c7.3,3.2,15.6,3.2,22.9,0c3.4-1.6,6.4-3.9,8.8-6.8c2.6-3.1,4.5-6.7,5.7-10.5c1.4-4.4,2.1-9,2-13.7c0-4.7-0.6-9.3-2-13.8c-1.2-3.9-3.1-7.5-5.7-10.7c-2.4-2.9-5.4-5.3-8.8-6.9c-7.3-3.2-15.6-3.2-22.9,0c-3.4,1.6-6.4,4-8.8,6.9c-2.6,3.2-4.5,6.8-5.7,10.7C228.1,96.7,227.5,101.3,227.5,106z"/>
	<path d="M396.7,149.6h-12.1l-1.3-15.3h-0.7c-4.2,4.9-9,9.2-14.5,12.6c-5.4,3.3-11.7,5-18.1,4.9c-10.6,0-18.3-3-23.1-8.9s-7.3-14.7-7.3-26.4V62.1h14.9v52.4c0,8.3,1.5,14.4,4.6,18.4c3.1,4,8.3,6,15.6,6c4.8,0.1,9.6-1.3,13.7-3.9c4.1-2.6,8.6-6.7,13.5-12.3V62.1h14.8L396.7,149.6z"/>
	<path d="M442.7,74.2H418V63l25.2-0.9l2-24.5h12.2v24.5h42.8v12.1h-42.8v41.6c-0.1,3.5,0.3,7,1.1,10.3c0.6,2.7,1.8,5.3,3.6,7.5c1.8,2.1,4.2,3.7,6.8,4.6c3.4,1.1,7,1.6,10.6,1.5c3.8,0,7.6-0.3,11.3-1.1c3.3-0.7,6.6-1.7,9.7-2.9l3.1,10.8c-4.2,1.6-8.6,2.8-13,3.7c-4.7,1-9.6,1.5-14.4,1.5c-5.5,0.2-10.9-0.7-16-2.6c-4-1.5-7.6-4.1-10.3-7.4c-2.7-3.4-4.6-7.3-5.6-11.4c-1.2-4.8-1.8-9.8-1.7-14.8L442.7,74.2z"/>
</svg>
