<svg xmlns="http://www.w3.org/2000/svg" viewBox="0 0 519.4 200.7">

<path d="M75.24,113.4H32.4l-11.34,36H5.76L45.54,31.32H62.46L102.24,149.4H86.4Zm-3.78-12.06-5.58-18q-3.06-9.9-5.94-19.71T54.18,43.56h-.72Q50.58,53.82,47.7,63.63T41.76,83.34l-5.58,18Z"/>

<path d="M119.38,21.24h14.76V56.16l-.36,16.92a50.41,50.41,0,0,1,14.13-9.72,37.82,37.82,0,0,1,31.23-.45,30.61,30.61,0,0,1,11.43,9,40.5,40.5,0,0,1,6.93,14,66.5,66.5,0,0,1,2.34,18.27,57.65,57.65,0,0,1-3.24,20,45.65,45.65,0,0,1-8.73,14.94,36.89,36.89,0,0,1-27.63,12.42,34.45,34.45,0,0,1-13.59-3.15,50.79,50.79,0,0,1-13.59-8.73h-.54l-1.26,9.72H119.38Zm14.76,107.64a40.19,40.19,0,0,0,12.69,7.92,33,33,0,0,0,11.07,2.34,23.41,23.41,0,0,0,10.62-2.43,25.65,25.65,0,0,0,8.46-6.84A31.65,31.65,0,0,0,182.55,119a49.85,49.85,0,0,0,2-14.58,55.86,55.86,0,0,0-1.44-13.14,29.74,29.74,0,0,0-4.41-10.17A20.3,20.3,0,0,0,171,74.52a24.72,24.72,0,0,0-11.16-2.34,28.67,28.67,0,0,0-12.33,3.15,50.08,50.08,0,0,0-13.41,10Z"/>

<path d="M218,105.84a51.08,51.08,0,0,1,3.51-19.53A43.65,43.65,0,0,1,231,71.82a39.75,39.75,0,0,1,13.77-9,45.86,45.86,0,0,1,32.94,0,39.74,39.74,0,0,1,13.77,9,43.66,43.66,0,0,1,9.45,14.49,51.08,51.08,0,0,1,3.51,19.53,50.56,50.56,0,0,1-3.51,19.35,42.61,42.61,0,0,1-9.45,14.4,40.32,40.32,0,0,1-13.77,8.91,45.85,45.85,0,0,1-32.94,0A40.33,40.33,0,0,1,231,139.59a42.6,42.6,0,0,1-9.45-14.4A50.56,50.56,0,0,1,218,105.84Zm15.3,0a44.26,44.26,0,0,0,2,13.68A31.1,31.1,0,0,0,241,130.05a25.73,25.73,0,0,0,8.82,6.84,28.1,28.1,0,0,0,22.86,0,25.75,25.75,0,0,0,8.82-6.84,31.18,31.18,0,0,0,5.67-10.53,44.31,44.31,0,0,0,2-13.68,45.19,45.19,0,0,0-2-13.77,32.1,32.1,0,0,0-5.67-10.71,25.33,25.33,0,0,0-8.82-6.93,28.09,28.09,0,0,0-22.86,0A25.31,25.31,0,0,0,241,81.36a32,32,0,0,0-5.67,10.71A45.13,45.13,0,0,0,233.31,105.84Z"/>

<path d="M402.51,149.4H390.45l-1.26-15.3h-.72A63,63,0,0,1,374,146.7a33.59,33.59,0,0,1-18.09,4.86q-15.84,0-23.13-8.91t-7.29-26.37V61.92h14.94V114.3q0,12.42,4.59,18.45t15.57,6a25,25,0,0,0,13.68-3.87q6.12-3.87,13.5-12.33V61.92h14.76Z"/>

<path d="M448.48,74H423.82V62.82l25.2-.9,2-24.48h12.24V61.92h42.84V74H463.24v41.58a43.87,43.87,0,0,0,1.08,10.35,18.43,18.43,0,0,0,3.6,7.47,15.16,15.16,0,0,0,6.84,4.59,32,32,0,0,0,10.62,1.53,54.29,54.29,0,0,0,11.34-1.08,64.88,64.88,0,0,0,9.72-2.88l3.06,10.8a90.61,90.61,0,0,1-13,3.69,69.23,69.23,0,0,1-14.4,1.53,43.07,43.07,0,0,1-16-2.61,25,25,0,0,1-10.35-7.38,29.47,29.47,0,0,1-5.58-11.43,59.26,59.26,0,0,1-1.71-14.76Z"/>

</svg>