<svg xmlns="http://www.w3.org/2000/svg" viewBox="0 0 425.23 200.7">

<path d="M14.22,31.32H29.34v49.5H78.66V31.32H93.78V149.4H78.66V93.78H29.34V149.4H14.22Z"/>

<path d="M114.77,105.84a51.08,51.08,0,0,1,3.51-19.53,43.66,43.66,0,0,1,9.45-14.49,39.74,39.74,0,0,1,13.77-9,45.86,45.86,0,0,1,32.94,0,39.75,39.75,0,0,1,13.77,9,43.65,43.65,0,0,1,9.45,14.49,51.08,51.08,0,0,1,3.51,19.53,50.56,50.56,0,0,1-3.51,19.35,42.6,42.6,0,0,1-9.45,14.4,40.33,40.33,0,0,1-13.77,8.91,45.85,45.85,0,0,1-32.94,0,40.32,40.32,0,0,1-13.77-8.91,42.61,42.61,0,0,1-9.45-14.4A50.56,50.56,0,0,1,114.77,105.84Zm15.3,0a44.23,44.23,0,0,0,2,13.68,31.08,31.08,0,0,0,5.67,10.53,25.72,25.72,0,0,0,8.82,6.84,28.1,28.1,0,0,0,22.86,0,25.75,25.75,0,0,0,8.82-6.84,31.2,31.2,0,0,0,5.67-10.53,44.31,44.31,0,0,0,2-13.68,45.19,45.19,0,0,0-2-13.77,32.12,32.12,0,0,0-5.67-10.71,25.34,25.34,0,0,0-8.82-6.93,28.09,28.09,0,0,0-22.86,0,25.31,25.31,0,0,0-8.82,6.93A32,32,0,0,0,132,92.07,45.1,45.1,0,0,0,130.07,105.84Z"/>

<path d="M221.16,61.92h11.52l1.26,11.52h.54a33.43,33.43,0,0,1,7.65-9.9q4.41-3.78,12-3.78,13.32,0,16.56,15.12a43.75,43.75,0,0,1,8.64-11q4.68-4.14,12.06-4.14,9.18,0,14.13,6.93t5,20.07V149.4H296.22V88q0-15.48-9.54-15.48a11.22,11.22,0,0,0-8.1,3.33A38,38,0,0,0,271.74,86V149.4H259.86V88q0-15.48-9.9-15.48A10.63,10.63,0,0,0,242,75.87,41.28,41.28,0,0,0,235.38,86V149.4H221.16Z"/>

<path d="M329.65,105.84a47.38,47.38,0,0,1,3.78-19.35,44.91,44.91,0,0,1,10-14.49,43.33,43.33,0,0,1,14.22-9.09,46.58,46.58,0,0,1,33.21-.18,35,35,0,0,1,12.51,8.37,36.24,36.24,0,0,1,7.83,13,49.49,49.49,0,0,1,2.7,16.74,50.64,50.64,0,0,1-.54,8.1h-68.4q.9,14.22,10,22.5t23.49,8.28a44,44,0,0,0,14.13-2.16,61,61,0,0,0,12.51-5.94l5.22,9.72a76.62,76.62,0,0,1-14.76,7.2,54.33,54.33,0,0,1-18.9,3.06,52.45,52.45,0,0,1-18.27-3.15,44.72,44.72,0,0,1-14.94-9,41.68,41.68,0,0,1-10.08-14.31A47.72,47.72,0,0,1,329.65,105.84Zm70.56-6.66q0-13.5-6.84-20.61t-19.08-7.11A28.91,28.91,0,0,0,355,78.75a31.3,31.3,0,0,0-10.26,20.43Z"/>

</svg>