<svg xmlns="http://www.w3.org/2000/svg" viewBox="0 0 1213.43 201.05">
    <path d="M245.39,86.49c-.3.48-.61,1-.92,1.42q-9.09,13.73-25.55,26.07l-47.09,35.32L5.85,24.83,0,76.56l116,87L166,201l47.09-35.32q17.3-13,26.47-27.49A57,57,0,0,0,248.38,114l5.86-51.74A57,57,0,0,1,245.39,86.49Z"/>
    <path d="M184.55,94.32A60.51,60.51,0,0,0,199.44,79a28,28,0,0,0,4.71-17.09q-.51-9-7.51-19t-22-21.29q-14.76-11.07-28-16.23A72.27,72.27,0,0,0,121.68,0,58.36,58.36,0,0,0,99.4,3.92,85.11,85.11,0,0,0,79.17,15.28l-5.35,4,105.39,79Z"/>
    <path d="M326.78,21.41h44.64v99.9q0,9.72,4.59,14t12.51,4.23q7.2,0,16.56-4.14l3.78,11.16q-5.94,2.16-11.16,3.69a44.55,44.55,0,0,1-12.42,1.53q-14,0-21.33-7.92t-7.29-23.58V33.47H326.78Z"/>
    <path d="M421,106a51.08,51.08,0,0,1,3.51-19.53A43.66,43.66,0,0,1,434,72a39.74,39.74,0,0,1,13.77-9,45.86,45.86,0,0,1,32.94,0,39.75,39.75,0,0,1,13.77,9,43.65,43.65,0,0,1,9.45,14.49A51.08,51.08,0,0,1,507.42,106a50.56,50.56,0,0,1-3.51,19.35,42.6,42.6,0,0,1-9.45,14.4,40.33,40.33,0,0,1-13.77,8.91,45.85,45.85,0,0,1-32.94,0A40.32,40.32,0,0,1,434,139.76a42.61,42.61,0,0,1-9.45-14.4A50.56,50.56,0,0,1,421,106Zm15.3,0a44.23,44.23,0,0,0,2,13.68A31.08,31.08,0,0,0,444,130.22a25.72,25.72,0,0,0,8.82,6.84,28.1,28.1,0,0,0,22.86,0,25.75,25.75,0,0,0,8.82-6.84,31.2,31.2,0,0,0,5.67-10.53,44.31,44.31,0,0,0,2-13.68,45.19,45.19,0,0,0-2-13.77,32.12,32.12,0,0,0-5.67-10.71,25.34,25.34,0,0,0-8.82-6.93,28.09,28.09,0,0,0-22.86,0A25.31,25.31,0,0,0,444,81.53a32,32,0,0,0-5.67,10.71A45.1,45.1,0,0,0,436.32,106Z"/>
    <path d="M544.86,157v29.52H530.1V62.09h12.24l1.26,11.16h.54a54.18,54.18,0,0,1,14.13-9.54,37.44,37.44,0,0,1,16.11-3.78A36.48,36.48,0,0,1,590,63.08a30.79,30.79,0,0,1,11.34,9,40.53,40.53,0,0,1,6.93,14,67.26,67.26,0,0,1,2.34,18.45,56.89,56.89,0,0,1-3.24,19.89,45.82,45.82,0,0,1-8.73,14.85,36.66,36.66,0,0,1-12.69,9.27,37.35,37.35,0,0,1-15.12,3.15,34.5,34.5,0,0,1-13.23-3,45.21,45.21,0,0,1-13-8.37Zm0-27.9a40.51,40.51,0,0,0,12.6,7.92,31.92,31.92,0,0,0,10.8,2.34,24,24,0,0,0,19.44-9.18q7.56-9.18,7.56-25.56a55.86,55.86,0,0,0-1.44-13.14,29.72,29.72,0,0,0-4.41-10.17,20.29,20.29,0,0,0-7.65-6.57,24.73,24.73,0,0,0-11.16-2.34,28.67,28.67,0,0,0-12.33,3.15,50.09,50.09,0,0,0-13.41,10Z"/>
    <path d="M629,106a47.38,47.38,0,0,1,3.78-19.35,44.91,44.91,0,0,1,10-14.49A43.33,43.33,0,0,1,657,63.08a46.58,46.58,0,0,1,33.21-.18,35,35,0,0,1,12.51,8.37,36.24,36.24,0,0,1,7.83,13,49.49,49.49,0,0,1,2.7,16.74,50.64,50.64,0,0,1-.54,8.1h-68.4q.9,14.22,10,22.5t23.49,8.28A44,44,0,0,0,692,137.69a61,61,0,0,0,12.51-5.94l5.22,9.72a76.62,76.62,0,0,1-14.76,7.2,54.33,54.33,0,0,1-18.9,3.06,52.45,52.45,0,0,1-18.27-3.15,44.72,44.72,0,0,1-14.94-9,41.68,41.68,0,0,1-10.08-14.31A47.72,47.72,0,0,1,629,106Zm70.56-6.66q0-13.5-6.84-20.61t-19.08-7.11a28.91,28.91,0,0,0-19.26,7.29,31.3,31.3,0,0,0-10.26,20.43Z"/>
    <path d="M731.29,106a52.43,52.43,0,0,1,3.33-19.17,45.25,45.25,0,0,1,8.82-14.49,38.82,38.82,0,0,1,12.69-9.18,36,36,0,0,1,14.94-3.24A31.42,31.42,0,0,1,785.29,63a61.34,61.34,0,0,1,12.24,8.28L797,55.07V21.41h14.76V149.57H799.5l-1.26-11.52h-.54a52.69,52.69,0,0,1-12.87,9.63,32.25,32.25,0,0,1-15.57,4,38.16,38.16,0,0,1-15.57-3.06,33.44,33.44,0,0,1-12-8.91A40.42,40.42,0,0,1,734,125.45,63.94,63.94,0,0,1,731.29,106Zm15.3-.18q0,15.84,6.75,24.66t19,8.82q13,0,24.66-13.14V82.61a39.28,39.28,0,0,0-11.61-7.92,29.77,29.77,0,0,0-11.43-2.34,24,24,0,0,0-10.71,2.43,26.29,26.29,0,0,0-8.64,6.84,33.74,33.74,0,0,0-5.85,10.53A40.89,40.89,0,0,0,746.59,105.83Z"/>
    <path d="M835.25,106A47.38,47.38,0,0,1,839,86.66a44.91,44.91,0,0,1,10-14.49,43.33,43.33,0,0,1,14.22-9.09,46.58,46.58,0,0,1,33.21-.18A35,35,0,0,1,909,71.27a36.24,36.24,0,0,1,7.83,13,49.49,49.49,0,0,1,2.7,16.74,50.64,50.64,0,0,1-.54,8.1h-68.4q.9,14.22,10,22.5T884,139.85a44,44,0,0,0,14.13-2.16,61,61,0,0,0,12.51-5.94l5.22,9.72a76.62,76.62,0,0,1-14.76,7.2,54.33,54.33,0,0,1-18.9,3.06A52.45,52.45,0,0,1,864,148.58a44.72,44.72,0,0,1-14.94-9,41.68,41.68,0,0,1-10.08-14.31A47.72,47.72,0,0,1,835.25,106Zm70.56-6.66q0-13.5-6.84-20.61t-19.08-7.11a28.91,28.91,0,0,0-19.26,7.29,31.3,31.3,0,0,0-10.26,20.43Z"/>
    <path d="M931.12,62.09h14.94l20.16,49.68q2.7,6.66,5.13,13t4.77,12.69h.72q2.34-6.3,4.59-12.69t5-13l20.16-49.68h14.22l-36.18,87.48H968Z"/>
    <path d="M1031.77,106a47.38,47.38,0,0,1,3.78-19.35,44.91,44.91,0,0,1,10-14.49,43.33,43.33,0,0,1,14.22-9.09A46.58,46.58,0,0,1,1093,62.9a35,35,0,0,1,12.51,8.37,36.24,36.24,0,0,1,7.83,13A49.49,49.49,0,0,1,1116,101a50.64,50.64,0,0,1-.54,8.1h-68.4q.9,14.22,10,22.5t23.49,8.28a44,44,0,0,0,14.13-2.16,61,61,0,0,0,12.51-5.94l5.22,9.72a76.62,76.62,0,0,1-14.76,7.2,54.33,54.33,0,0,1-18.9,3.06,52.45,52.45,0,0,1-18.27-3.15,44.72,44.72,0,0,1-14.94-9,41.68,41.68,0,0,1-10.08-14.31A47.72,47.72,0,0,1,1031.77,106Zm70.56-6.66q0-13.5-6.84-20.61t-19.08-7.11a28.91,28.91,0,0,0-19.26,7.29,31.3,31.3,0,0,0-10.26,20.43Z"/>
    <path d="M1143.23,62.09h12.24l1.26,20.7h.54a52.71,52.71,0,0,1,16.83-16.74,41.73,41.73,0,0,1,22.23-6.12,45.51,45.51,0,0,1,8.91.81,34.88,34.88,0,0,1,8.19,2.79l-3.06,12.78a74.4,74.4,0,0,0-7.92-2.34,40.41,40.41,0,0,0-8.46-.72,35.36,35.36,0,0,0-19,5.67q-9.09,5.67-17,19.35v51.3h-14.76Z"/>
</svg>