<svg xmlns="http://www.w3.org/2000/svg" viewBox="0 0 193.21 138.77">
<path d="M9.9,0C0,0,0,5.83,0,10V131.1c0,4.16,4.06,7.66,8.87,7.66H183.52c9.69,0,9.69-5.53,9.69-9.21V10.24c0-4.94,0-10.24-9.69-10.24H9.9Zm-1,132.26c-1,0,56.51-61.69,56.51-61.69L79.18,84.33a24.26,24.26,0,0,0,17.95,6.54,24.23,24.23,0,0,0,17.94-6.54l14-13.91s56.91,61.84,56.29,61.84H8.87Zm177.39-8-53-58.44,53-53.1V124.27ZM7,124.95V13.05L61.45,66.24Zm176-118.54L110.19,79.7a17.57,17.57,0,0,1-13.06,4.91A17.54,17.54,0,0,1,84.07,79.7L9,6.48s-1.18,0-.15,0H183.52c.62,0-.6-.11-.6-.11Z"/>
</svg>
