<svg xmlns="http://www.w3.org/2000/svg" viewBox="0 0 1586.06 200.7">

<path d="M1.8,31.14H16.74l9.54,74.16q.36,7.56,1.17,14.67t1.35,14.49h.54q2-7.38,3.87-14.58T36.9,105.3L49.32,61.74H59.94L72.36,105.3q1.62,7.2,3.51,14.49t3.87,14.67h.72q.54-7.38,1.26-14.58T83,105.3l9-74.16H106.2L88.74,149.4H72.18L58.68,99.9q-1.26-5.22-2.34-10.62t-2-10.62h-.54q-1.08,5.22-2.16,10.62T49.14,99.9l-13,49.5H20Z"/>

<path d="M116.39,126.72a23.38,23.38,0,0,1,3.51-12.87q3.51-5.49,11.16-9.45a78.28,78.28,0,0,1,19.71-6.48,246.78,246.78,0,0,1,29-4,32.16,32.16,0,0,0-1.44-8.46,18.54,18.54,0,0,0-4-6.93,19.26,19.26,0,0,0-7.11-4.77A28.4,28.4,0,0,0,156.53,72,42.32,42.32,0,0,0,140,75.33a101.91,101.91,0,0,0-14,7.11l-5.76-10.08A76.93,76.93,0,0,1,127.82,68a83.16,83.16,0,0,1,9.36-4,77.41,77.41,0,0,1,10.53-3A55.13,55.13,0,0,1,159,59.76q18,0,26.73,9.81t8.73,26.19V149.4H182.45l-1.26-11.88h-.54a83.54,83.54,0,0,1-16.29,9.9,42.93,42.93,0,0,1-18.27,4.14,38,38,0,0,1-11.52-1.71,29.93,29.93,0,0,1-9.45-4.86,22.29,22.29,0,0,1-8.73-18.27Zm14.4-1.08a11.89,11.89,0,0,0,1.62,6.39,13.81,13.81,0,0,0,4.23,4.32,18.71,18.71,0,0,0,6.12,2.52,32.32,32.32,0,0,0,7.29.81,35.38,35.38,0,0,0,14.85-3.33,66.85,66.85,0,0,0,14.85-9.63v-23a187.5,187.5,0,0,0-23.49,3.06,65.45,65.45,0,0,0-15.12,4.77q-5.67,2.79-8,6.3A13.8,13.8,0,0,0,130.79,125.64Z"/>

<path d="M221.59,61.92h12.24l1.26,14.94h.72a70.18,70.18,0,0,1,14.76-12.24,34.05,34.05,0,0,1,18.18-4.86q15.66,0,23,8.91T299,95V149.4H284.23V97q0-12.42-4.68-18.45t-15.48-6a25.55,25.55,0,0,0-7.29,1,27.86,27.86,0,0,0-6.57,3,50.21,50.21,0,0,0-6.66,5q-3.42,3-7.2,6.93v61H221.59Z"/>

<path d="M319.1,165.42a17.21,17.21,0,0,1,3.69-10.26A35.09,35.09,0,0,1,333.5,146v-.72a20.66,20.66,0,0,1-6.3-5.4,14.1,14.1,0,0,1-2.7-9,16.38,16.38,0,0,1,2.7-8.55,25.94,25.94,0,0,1,7.74-7.83v-.72a28.66,28.66,0,0,1-7.65-9.09,27.56,27.56,0,0,1-3.15-13.59,29.33,29.33,0,0,1,2.79-13,30.22,30.22,0,0,1,7.47-9.81A34.35,34.35,0,0,1,345.29,62a38.56,38.56,0,0,1,13.23-2.25,36.72,36.72,0,0,1,13,2.16h36.18V73.26h-23.4a37.12,37.12,0,0,1,5.58,7.92,21.69,21.69,0,0,1,2.52,10.44,29.41,29.41,0,0,1-2.61,12.6,27.33,27.33,0,0,1-7.2,9.45,32.42,32.42,0,0,1-10.8,5.94,41.54,41.54,0,0,1-13.23,2.07,35.65,35.65,0,0,1-7.29-.81,36.19,36.19,0,0,1-7.47-2.43q-6.84,4.32-6.84,10.08a8,8,0,0,0,4.77,7.65q4.77,2.43,13.41,2.43h19.62q16.92,0,25.11,4.68T408,159.12a22.08,22.08,0,0,1-3.42,11.7,31.33,31.33,0,0,1-9.72,9.72,54.58,54.58,0,0,1-15.3,6.66,74.77,74.77,0,0,1-20.16,2.52q-19.26,0-29.79-6.3T319.1,165.42ZM331.88,164q0,6.84,7.29,11.16t21.33,4.32a56.6,56.6,0,0,0,13.68-1.53,40,40,0,0,0,10.44-4,20.24,20.24,0,0,0,6.57-5.76,11.56,11.56,0,0,0,2.25-6.66q0-6.3-4.95-8.46t-15-2.16h-17.1q-3.78,0-7.11-.27A28.52,28.52,0,0,1,343,149.4q-6.3,3.42-8.73,7.11A13.45,13.45,0,0,0,331.88,164Zm26.64-52.2a20,20,0,0,0,14.31-5.58q5.85-5.58,5.85-15.12a20.8,20.8,0,0,0-1.62-8.28,20.43,20.43,0,0,0-4.32-6.48,19.51,19.51,0,0,0-6.39-4.23,20.8,20.8,0,0,0-15.66,0,19.48,19.48,0,0,0-6.39,4.23A20.42,20.42,0,0,0,340,82.8a20.8,20.8,0,0,0-1.62,8.28q0,9.54,5.94,15.12A20,20,0,0,0,358.52,111.78Z"/>

<path d="M546.44,122.94a36.18,36.18,0,0,0,11.7,11.7,26.12,26.12,0,0,0,13.32,3.78q12.78,0,18.63-6.75t5.85-21.33V43.74h-49.5V31.14h64.44V111.6a59.21,59.21,0,0,1-2,15.57,32.45,32.45,0,0,1-6.57,12.69,31.6,31.6,0,0,1-12.06,8.55q-7.47,3.15-18.45,3.15a43.53,43.53,0,0,1-19.53-4.68,37.51,37.51,0,0,1-15.57-14.94Z"/>

<path d="M633.93,61.92h55.44V149.4H674.61V74H633.93Zm46.44-18a12.13,12.13,0,0,1-8.55-3.06,10.68,10.68,0,0,1-3.33-8.28,11,11,0,0,1,3.33-8.37,13.06,13.06,0,0,1,17,0,10.85,10.85,0,0,1,3.42,8.37,10.56,10.56,0,0,1-3.42,8.28A12.22,12.22,0,0,1,680.37,43.92Z"/>

<path d="M722,126.72a23.38,23.38,0,0,1,3.51-12.87q3.51-5.49,11.16-9.45a78.28,78.28,0,0,1,19.71-6.48,246.78,246.78,0,0,1,29-4,32.16,32.16,0,0,0-1.44-8.46,18.54,18.54,0,0,0-4-6.93,19.26,19.26,0,0,0-7.11-4.77A28.4,28.4,0,0,0,762.14,72a42.32,42.32,0,0,0-16.56,3.33,101.91,101.91,0,0,0-14,7.11l-5.76-10.08A76.93,76.93,0,0,1,733.43,68a83.16,83.16,0,0,1,9.36-4,77.41,77.41,0,0,1,10.53-3,55.13,55.13,0,0,1,11.34-1.17q18,0,26.73,9.81t8.73,26.19V149.4H788.06l-1.26-11.88h-.54a83.54,83.54,0,0,1-16.29,9.9,42.93,42.93,0,0,1-18.27,4.14,38,38,0,0,1-11.52-1.71,29.93,29.93,0,0,1-9.45-4.86A22.29,22.29,0,0,1,722,126.72Zm14.4-1.08A11.89,11.89,0,0,0,738,132a13.81,13.81,0,0,0,4.23,4.32,18.71,18.71,0,0,0,6.12,2.52,32.32,32.32,0,0,0,7.29.81,35.38,35.38,0,0,0,14.85-3.33,66.85,66.85,0,0,0,14.85-9.63v-23a187.5,187.5,0,0,0-23.49,3.06,65.45,65.45,0,0,0-15.12,4.77q-5.67,2.79-8,6.3A13.8,13.8,0,0,0,736.4,125.64Z"/>

<path d="M827.21,61.92h12.24l1.26,14.94h.72a70.18,70.18,0,0,1,14.76-12.24,34.05,34.05,0,0,1,18.18-4.86q15.66,0,23,8.91T904.61,95V149.4H889.85V97q0-12.42-4.68-18.45t-15.48-6a25.55,25.55,0,0,0-7.29,1,27.86,27.86,0,0,0-6.57,3,50.21,50.21,0,0,0-6.66,5q-3.42,3-7.2,6.93v61H827.21Z"/>

<path d="M935.43,77.76A36.89,36.89,0,0,0,948.84,66a32.61,32.61,0,0,0,5.31-16.65,10.32,10.32,0,0,1-4.68,1.08,12.06,12.06,0,0,1-12.78-12.78,13.94,13.94,0,0,1,3.78-10.17A12.78,12.78,0,0,1,950,23.58a14.17,14.17,0,0,1,11.7,5.76q4.5,5.76,4.5,16a43.58,43.58,0,0,1-6.84,24.12,48.84,48.84,0,0,1-18.9,16.92Z"/>

<path d="M997.42,128.16a67.67,67.67,0,0,0,15.84,8.64q8.46,3.24,20.34,3.24t17.64-4q5.76-4,5.76-9.72,0-5-6.21-9t-22.23-7.92a97.75,97.75,0,0,1-12.87-4,49.33,49.33,0,0,1-10.53-5.49,29.44,29.44,0,0,1-7.2-6.93,14.21,14.21,0,0,1-2.7-8.46,21.3,21.3,0,0,1,2.34-9.81,22.25,22.25,0,0,1,6.93-7.92A35.29,35.29,0,0,1,1016,61.65,60.73,60.73,0,0,1,1032,59.76a57.06,57.06,0,0,1,19.26,3.33,67.37,67.37,0,0,1,15.84,7.83l-7.2,9.54a51.8,51.8,0,0,0-12.78-6.66A44.43,44.43,0,0,0,1032,71.28a45.06,45.06,0,0,0-10.26,1,20.26,20.26,0,0,0-6.66,2.7,10,10,0,0,0-3.6,4,11.47,11.47,0,0,0-1.08,4.86q0,5.4,7.38,8.91A109.15,109.15,0,0,0,1037,99.36q17.82,4.5,26.37,10.26a18.12,18.12,0,0,1,8.55,15.84,21,21,0,0,1-2.52,10.08,24.89,24.89,0,0,1-7.47,8.28,38.46,38.46,0,0,1-12.24,5.67,61.15,61.15,0,0,1-16.65,2.07,67.93,67.93,0,0,1-23.85-4,86.41,86.41,0,0,1-19-9.63Z"/>

<path d="M1210,21.24h14.76V56.16l-.36,16.92a50.4,50.4,0,0,1,14.13-9.72,37.82,37.82,0,0,1,31.23-.45,30.61,30.61,0,0,1,11.43,9,40.51,40.51,0,0,1,6.93,14,66.52,66.52,0,0,1,2.34,18.27,57.65,57.65,0,0,1-3.24,20,45.65,45.65,0,0,1-8.73,14.94,36.89,36.89,0,0,1-27.63,12.42,34.46,34.46,0,0,1-13.59-3.15,50.79,50.79,0,0,1-13.59-8.73h-.54l-1.26,9.72H1210Zm14.76,107.64a40.19,40.19,0,0,0,12.69,7.92,33,33,0,0,0,11.07,2.34,23.41,23.41,0,0,0,10.62-2.43,25.64,25.64,0,0,0,8.46-6.84,31.64,31.64,0,0,0,5.58-10.89,49.85,49.85,0,0,0,2-14.58,55.86,55.86,0,0,0-1.44-13.14,29.73,29.73,0,0,0-4.41-10.17,20.3,20.3,0,0,0-7.65-6.57,24.72,24.72,0,0,0-11.16-2.34,28.67,28.67,0,0,0-12.33,3.15,50.09,50.09,0,0,0-13.41,10Z"/>

<path d="M1294.65,21.24h44.64v99.9q0,9.72,4.59,14t12.51,4.23q7.2,0,16.56-4.14l3.78,11.16q-5.94,2.16-11.16,3.69a44.54,44.54,0,0,1-12.42,1.53q-14,0-21.33-7.92t-7.29-23.58V33.3h-29.88Z"/>

<path d="M1388.89,105.84a51.08,51.08,0,0,1,3.51-19.53,43.65,43.65,0,0,1,9.45-14.49,39.74,39.74,0,0,1,13.77-9,45.86,45.86,0,0,1,32.94,0,39.74,39.74,0,0,1,13.77,9,43.65,43.65,0,0,1,9.45,14.49,51.08,51.08,0,0,1,3.51,19.53,50.56,50.56,0,0,1-3.51,19.35,42.61,42.61,0,0,1-9.45,14.4,40.33,40.33,0,0,1-13.77,8.91,45.85,45.85,0,0,1-32.94,0,40.33,40.33,0,0,1-13.77-8.91,42.61,42.61,0,0,1-9.45-14.4A50.56,50.56,0,0,1,1388.89,105.84Zm15.3,0a44.24,44.24,0,0,0,2,13.68,31.09,31.09,0,0,0,5.67,10.53,25.73,25.73,0,0,0,8.82,6.84,28.1,28.1,0,0,0,22.86,0,25.75,25.75,0,0,0,8.82-6.84,31.19,31.19,0,0,0,5.67-10.53,44.31,44.31,0,0,0,2-13.68,45.19,45.19,0,0,0-2-13.77,32.11,32.11,0,0,0-5.67-10.71,25.34,25.34,0,0,0-8.82-6.93,28.09,28.09,0,0,0-22.86,0,25.31,25.31,0,0,0-8.82,6.93,32,32,0,0,0-5.67,10.71A45.12,45.12,0,0,0,1404.19,105.84Z"/>

<path d="M1491,165.42a17.21,17.21,0,0,1,3.69-10.26,35.09,35.09,0,0,1,10.71-9.18v-.72a20.66,20.66,0,0,1-6.3-5.4,14.1,14.1,0,0,1-2.7-9,16.38,16.38,0,0,1,2.7-8.55,25.94,25.94,0,0,1,7.74-7.83v-.72a28.66,28.66,0,0,1-7.65-9.09,27.56,27.56,0,0,1-3.15-13.59,29.33,29.33,0,0,1,2.79-13,30.22,30.22,0,0,1,7.47-9.81,34.35,34.35,0,0,1,10.89-6.3,38.56,38.56,0,0,1,13.23-2.25,36.72,36.72,0,0,1,13,2.16h36.18V73.26h-23.4a37.12,37.12,0,0,1,5.58,7.92,21.69,21.69,0,0,1,2.52,10.44,29.41,29.41,0,0,1-2.61,12.6,27.33,27.33,0,0,1-7.2,9.45,32.42,32.42,0,0,1-10.8,5.94,41.54,41.54,0,0,1-13.23,2.07,35.65,35.65,0,0,1-7.29-.81,36.19,36.19,0,0,1-7.47-2.43q-6.84,4.32-6.84,10.08a8,8,0,0,0,4.77,7.65q4.77,2.43,13.41,2.43h19.62q16.92,0,25.11,4.68t8.19,15.84a22.08,22.08,0,0,1-3.42,11.7,31.33,31.33,0,0,1-9.72,9.72,54.58,54.58,0,0,1-15.3,6.66,74.77,74.77,0,0,1-20.16,2.52q-19.26,0-29.79-6.3T1491,165.42ZM1503.8,164q0,6.84,7.29,11.16t21.33,4.32a56.6,56.6,0,0,0,13.68-1.53,40,40,0,0,0,10.44-4,20.24,20.24,0,0,0,6.57-5.76,11.56,11.56,0,0,0,2.25-6.66q0-6.3-4.95-8.46t-15-2.16h-17.1q-3.78,0-7.11-.27a28.52,28.52,0,0,1-6.21-1.17q-6.3,3.42-8.73,7.11A13.45,13.45,0,0,0,1503.8,164Zm26.64-52.2a20,20,0,0,0,14.31-5.58q5.85-5.58,5.85-15.12A20.8,20.8,0,0,0,1549,82.8a20.43,20.43,0,0,0-4.32-6.48,19.51,19.51,0,0,0-6.39-4.23,20.8,20.8,0,0,0-15.66,0,19.48,19.48,0,0,0-6.39,4.23,20.42,20.42,0,0,0-4.32,6.48,20.8,20.8,0,0,0-1.62,8.28q0,9.54,5.94,15.12A20,20,0,0,0,1530.44,111.78Z"/>

</svg>